<?xml version="1.0" standalone="no"?>
<!DOCTYPE svg PUBLIC "-//W3C//DTD SVG 20010904//EN"
 "http://www.w3.org/TR/2001/REC-SVG-20010904/DTD/svg10.dtd">
<svg version="1.0" xmlns="http://www.w3.org/2000/svg"
 width="42.000000pt" height="169.000000pt" viewBox="0 0 42.000000 169.000000"
 preserveAspectRatio="xMidYMid meet">

<g transform="translate(0.000000,169.000000) scale(0.100000,-0.100000)"
fill="#000000" stroke="none">
<path d="M20 1576 c0 -37 12 -51 53 -61 25 -7 27 -5 27 27 0 27 -6 37 -29 51
-42 24 -51 21 -51 -17z"/>
<path d="M181 1508 c-1 -28 4 -40 19 -48 18 -10 20 -8 20 25 0 23 -5 35 -14
35 -8 0 -17 6 -19 13 -3 6 -6 -5 -6 -25z"/>
<path d="M24 1505 c-15 -38 1 -59 61 -82 32 -13 61 -23 62 -23 2 0 3 15 3 33
-1 29 -5 34 -61 59 -48 22 -61 25 -65 13z"/>
<path d="M233 1475 c0 -22 2 -30 4 -17 2 12 2 30 0 40 -3 9 -5 -1 -4 -23z"/>
<path d="M340 1443 c0 -27 6 -42 20 -51 19 -11 20 -10 19 30 0 33 -2 38 -9 23
-8 -19 -9 -19 -9 2 -2 40 -21 36 -21 -4z"/>
<path d="M163 1425 c0 -22 2 -30 4 -17 2 12 2 30 0 40 -3 9 -5 -1 -4 -23z"/>
<path d="M180 1414 c0 -19 2 -34 4 -34 2 0 11 -3 20 -6 13 -5 16 1 16 29 0 26
-5 36 -20 40 -17 4 -20 0 -20 -29z"/>
<path d="M393 1415 c0 -22 2 -30 4 -17 2 12 2 30 0 40 -3 9 -5 -1 -4 -23z"/>
<path d="M20 1392 c0 -25 6 -41 18 -48 9 -6 43 -25 75 -43 l57 -32 0 33 c0 30
-7 37 -75 80 l-75 47 0 -37z"/>
<path d="M233 1395 c0 -22 2 -30 4 -17 2 12 2 30 0 40 -3 9 -5 -1 -4 -23z"/>
<path d="M253 1385 c0 -22 2 -30 4 -17 2 12 2 30 0 40 -3 9 -5 -1 -4 -23z"/>
<path d="M270 1376 c0 -20 5 -36 10 -36 6 0 10 13 10 29 0 17 -4 33 -10 36 -6
4 -10 -8 -10 -29z"/>
<path d="M303 1365 c0 -22 2 -30 4 -17 2 12 2 30 0 40 -3 9 -5 -1 -4 -23z"/>
<path d="M323 1355 c0 -22 2 -30 4 -17 2 12 2 30 0 40 -3 9 -5 -1 -4 -23z"/>
<path d="M340 1345 c0 -24 5 -34 20 -38 17 -4 20 0 20 28 0 24 -5 34 -20 38
-17 4 -20 0 -20 -28z"/>
<path d="M393 1325 c0 -22 2 -30 4 -17 2 12 2 30 0 40 -3 9 -5 -1 -4 -23z"/>
<path d="M180 1296 c0 -26 6 -38 23 -47 12 -7 25 -17 29 -23 4 -6 8 8 8 32 0
26 -4 41 -10 37 -5 -3 -10 -2 -10 4 0 6 -9 15 -20 21 -18 10 -20 8 -20 -24z"/>
<path d="M253 1250 c0 -25 2 -35 4 -22 2 12 2 32 0 45 -2 12 -4 2 -4 -23z"/>
<path d="M20 1235 l0 -35 75 0 c68 0 75 2 75 19 0 31 -38 51 -97 51 l-53 0 0
-35z"/>
<path d="M270 1235 c0 -23 5 -35 14 -35 8 0 17 -6 19 -12 3 -7 6 4 6 24 1 28
-4 40 -19 48 -18 10 -20 8 -20 -25z"/>
<path d="M323 1205 c0 -22 2 -30 4 -17 2 12 2 30 0 40 -3 9 -5 -1 -4 -23z"/>
<path d="M180 1215 c0 -8 9 -15 20 -15 11 0 20 2 20 5 0 2 -9 9 -20 15 -16 9
-20 8 -20 -5z"/>
<path d="M340 1198 c0 -22 7 -37 20 -46 19 -11 20 -10 20 23 0 24 -6 37 -20
45 -18 10 -20 8 -20 -22z"/>
<path d="M393 1165 c0 -22 2 -30 4 -17 2 12 2 30 0 40 -3 9 -5 -1 -4 -23z"/>
<path d="M38 1169 c-10 -5 -18 -21 -18 -34 0 -30 43 -55 81 -48 19 3 31 -2 45
-19 10 -14 28 -27 39 -30 11 -3 28 -9 38 -13 15 -6 17 -1 17 39 0 46 -13 59
-36 36 -7 -7 -14 -3 -23 13 -12 23 -88 67 -114 67 -6 0 -20 -5 -29 -11z"/>
<path d="M253 1065 c0 -22 2 -30 4 -17 2 12 2 30 0 40 -3 9 -5 -1 -4 -23z"/>
<path d="M20 1056 l0 -34 143 -60 142 -60 3 30 c4 32 -19 58 -47 53 -9 -1 -20
4 -26 11 -9 11 -194 94 -209 94 -4 0 -6 -15 -6 -34z"/>
<path d="M270 1056 c0 -25 5 -35 20 -39 17 -4 20 0 20 28 0 21 -6 35 -16 39
-24 9 -24 9 -24 -28z"/>
<path d="M323 1025 c0 -27 2 -38 4 -22 2 15 2 37 0 50 -2 12 -4 0 -4 -28z"/>
<path d="M340 1018 c0 -27 2 -48 4 -48 2 0 11 -3 20 -6 24 -9 21 48 -4 77
l-19 24 -1 -47z"/>
<path d="M392 975 c0 -16 2 -22 5 -12 2 9 2 23 0 30 -3 6 -5 -1 -5 -18z"/>
<path d="M42 964 c-35 -24 -29 -61 14 -81 30 -15 37 -15 44 -3 7 11 26 6 102
-25 51 -21 96 -43 100 -49 4 -6 8 7 8 29 l0 40 -116 50 c-64 28 -119 51 -123
53 -3 1 -16 -5 -29 -14z"/>
<path d="M323 925 c0 -22 2 -30 4 -17 2 12 2 30 0 40 -3 9 -5 -1 -4 -23z"/>
<path d="M340 922 c0 -31 4 -41 20 -45 17 -4 20 0 20 29 0 23 -6 37 -20 44
-18 10 -20 8 -20 -28z"/>
<path d="M393 895 c0 -22 2 -30 4 -17 2 12 2 30 0 40 -3 9 -5 -1 -4 -23z"/>
<path d="M20 846 l0 -33 153 -64 c83 -35 154 -64 157 -64 3 -1 15 -6 26 -13
25 -13 34 -7 34 23 0 25 -18 44 -48 50 -11 2 -32 11 -46 20 -14 10 -26 14 -26
11 0 -4 -10 0 -22 8 -23 14 -212 96 -222 96 -4 0 -6 -15 -6 -34z"/>
<path d="M323 820 c0 -30 2 -43 4 -27 2 15 2 39 0 55 -2 15 -4 2 -4 -28z"/>
<path d="M340 812 c0 -48 9 -62 42 -62 14 0 -1 61 -23 89 l-19 24 0 -51z"/>
<path d="M38 756 c-10 -7 -18 -25 -18 -39 0 -20 7 -28 35 -37 19 -6 39 -8 45
-5 15 9 210 -74 217 -92 6 -15 63 -48 63 -36 0 5 5 1 10 -7 7 -11 10 -8 10 15
-1 55 -43 89 -194 155 -76 33 -142 60 -145 60 -3 0 -14 -7 -23 -14z"/>
<path d="M20 654 c0 -39 37 -84 89 -106 194 -84 244 -100 267 -87 38 20 31 54
-13 72 -21 8 -40 11 -43 7 -7 -12 -190 67 -220 95 -24 22 -62 45 -74 45 -3 0
-6 -12 -6 -26z"/>
<path d="M23 538 c-34 -16 -30 -54 7 -73 17 -9 39 -13 49 -10 21 6 212 -72
224 -92 9 -14 60 -43 77 -43 20 0 9 45 -19 77 -20 24 -66 50 -166 93 -76 33
-141 60 -144 59 -3 0 -16 -5 -28 -11z"/>
<path d="M0 437 c0 -48 57 -92 199 -152 121 -51 136 -55 162 -45 42 18 39 52
-6 73 -19 9 -42 14 -50 10 -22 -8 -213 75 -225 97 -5 10 -24 23 -41 29 -41 14
-39 15 -39 -12z"/>
<path d="M17 306 c-30 -23 -21 -51 21 -67 56 -21 82 -14 82 22 0 25 -6 33 -35
45 -41 17 -45 17 -68 0z"/>
<path d="M192 218 c3 -38 7 -45 38 -59 25 -12 37 -14 42 -5 5 7 17 0 37 -21
16 -18 34 -33 40 -33 5 0 16 -3 25 -6 24 -9 20 33 -6 73 -16 22 -45 42 -91 63
-37 16 -72 30 -78 30 -6 0 -9 -18 -7 -42z"/>
<path d="M0 213 c0 -59 34 -86 190 -152 132 -56 149 -61 173 -50 41 18 37 56
-7 74 -19 8 -41 12 -48 10 -18 -7 -209 72 -228 95 -8 10 -30 25 -47 34 l-33
17 0 -28z"/>
</g>
</svg>
