<?xml version="1.0" standalone="no"?>
<!DOCTYPE svg PUBLIC "-//W3C//DTD SVG 20010904//EN"
 "http://www.w3.org/TR/2001/REC-SVG-20010904/DTD/svg10.dtd">
<svg version="1.0" xmlns="http://www.w3.org/2000/svg"
 width="40.000000pt" height="167.000000pt" viewBox="0 0 40.000000 167.000000"
 preserveAspectRatio="xMidYMid meet">

<g transform="translate(0.000000,167.000000) scale(0.100000,-0.100000)"
fill="#000000" stroke="none">
<path d="M25 1629 c-4 -12 -2 -26 4 -32 8 -8 11 -2 11 21 0 37 -6 41 -15 11z"/>
<path d="M53 1605 c0 -22 2 -30 4 -17 2 12 2 30 0 40 -3 9 -5 -1 -4 -23z"/>
<path d="M72 1600 c0 -19 2 -27 5 -17 2 9 2 25 0 35 -3 9 -5 1 -5 -18z"/>
<path d="M93 1585 c0 -22 2 -30 4 -17 2 12 2 30 0 40 -3 9 -5 -1 -4 -23z"/>
<path d="M123 1565 c0 -22 2 -30 4 -17 2 12 2 30 0 40 -3 9 -5 -1 -4 -23z"/>
<path d="M143 1555 c0 -22 2 -30 4 -17 2 12 2 30 0 40 -3 9 -5 -1 -4 -23z"/>
<path d="M163 1545 c0 -22 2 -30 4 -17 2 12 2 30 0 40 -3 9 -5 -1 -4 -23z"/>
<path d="M180 1536 c0 -19 5 -38 10 -41 6 -4 10 8 10 29 0 19 -4 38 -10 41 -6
4 -10 -8 -10 -29z"/>
<path d="M213 1515 c0 -22 2 -30 4 -17 2 12 2 30 0 40 -3 9 -5 -1 -4 -23z"/>
<path d="M233 1505 c0 -22 2 -30 4 -17 2 12 2 30 0 40 -3 9 -5 -1 -4 -23z"/>
<path d="M250 1497 c0 -20 8 -39 20 -50 19 -16 20 -16 20 21 0 26 -6 41 -20
50 -18 11 -20 10 -20 -21z"/>
<path d="M20 1481 c0 -17 5 -33 10 -36 6 -4 10 8 10 29 0 20 -4 36 -10 36 -5
0 -10 -13 -10 -29z"/>
<path d="M53 1475 c0 -22 2 -30 4 -17 2 12 2 30 0 40 -3 9 -5 -1 -4 -23z"/>
<path d="M73 1475 c0 -22 2 -30 4 -17 2 12 2 30 0 40 -3 9 -5 -1 -4 -23z"/>
<path d="M93 1475 c0 -22 2 -30 4 -17 2 12 2 30 0 40 -3 9 -5 -1 -4 -23z"/>
<path d="M122 1470 c0 -19 2 -27 5 -17 2 9 2 25 0 35 -3 9 -5 1 -5 -18z"/>
<path d="M300 1465 c0 -37 4 -42 45 -68 25 -15 48 -27 51 -27 3 0 4 16 2 36
-3 31 -9 40 -43 58 -22 11 -43 26 -47 31 -4 6 -8 -8 -8 -30z"/>
<path d="M142 1465 c0 -16 2 -22 5 -12 2 9 2 23 0 30 -3 6 -5 -1 -5 -18z"/>
<path d="M162 1460 c0 -14 2 -19 5 -12 2 6 2 18 0 25 -3 6 -5 1 -5 -13z"/>
<path d="M180 1456 c0 -9 5 -16 10 -16 6 0 10 4 10 9 0 6 -4 13 -10 16 -5 3
-10 -1 -10 -9z"/>
<path d="M20 1401 c0 -11 5 -23 10 -26 6 -3 10 3 10 14 0 11 -4 23 -10 26 -5
3 -10 -3 -10 -14z"/>
<path d="M52 1380 c0 -14 2 -19 5 -12 2 6 2 18 0 25 -3 6 -5 1 -5 -13z"/>
<path d="M72 1375 c0 -16 2 -22 5 -12 2 9 2 23 0 30 -3 6 -5 -1 -5 -18z"/>
<path d="M20 1291 c0 -33 5 -63 10 -66 6 -4 10 18 10 59 0 37 -4 66 -10 66 -6
0 -10 -26 -10 -59z"/>
<path d="M53 1275 c0 -38 2 -53 4 -32 2 20 2 52 0 70 -2 17 -4 1 -4 -38z"/>
<path d="M73 1265 c0 -38 2 -53 4 -32 2 20 2 52 0 70 -2 17 -4 1 -4 -38z"/>
<path d="M90 1296 c0 -25 6 -38 20 -46 18 -10 20 -8 19 27 -1 38 -1 38 -9 8
l-8 -30 -1 32 c-1 45 -21 53 -21 9z"/>
<path d="M143 1265 c0 -22 2 -30 4 -17 2 12 2 30 0 40 -3 9 -5 -1 -4 -23z"/>
<path d="M160 1266 c0 -25 6 -38 20 -46 18 -10 20 -8 20 24 0 25 -6 38 -20 46
-18 10 -20 8 -20 -24z"/>
<path d="M213 1240 c0 -25 2 -35 4 -22 2 12 2 32 0 45 -2 12 -4 2 -4 -23z"/>
<path d="M230 1234 c0 -33 3 -36 63 -63 106 -48 107 -48 107 -7 0 20 -1 36 -3
36 -1 0 -40 16 -85 35 l-82 34 0 -35z"/>
<path d="M20 1166 c0 -19 5 -38 10 -41 6 -4 10 8 10 29 0 19 -4 38 -10 41 -6
4 -10 -8 -10 -29z"/>
<path d="M53 1145 c0 -22 2 -30 4 -17 2 12 2 30 0 40 -3 9 -5 -1 -4 -23z"/>
<path d="M73 1140 c0 -25 2 -35 4 -22 2 12 2 32 0 45 -2 12 -4 2 -4 -23z"/>
<path d="M90 1134 c0 -23 6 -37 20 -44 18 -10 20 -8 20 28 0 31 -4 41 -20 45
-17 4 -20 0 -20 -29z"/>
<path d="M143 1110 c0 -25 2 -35 4 -22 2 12 2 32 0 45 -2 12 -4 2 -4 -23z"/>
<path d="M160 1104 c0 -23 6 -37 20 -44 18 -10 20 -8 20 28 0 31 -4 41 -20 45
-17 4 -20 0 -20 -29z"/>
<path d="M211 1085 l-1 -40 78 -32 c123 -52 114 -51 110 -8 -3 36 -5 38 -83
70 -52 22 -82 30 -86 23 -4 -7 -9 -3 -12 8 -2 10 -5 1 -6 -21z"/>
<path d="M18 1065 c-3 -14 1 -30 8 -36 11 -9 14 -6 14 19 0 38 -16 50 -22 17z"/>
<path d="M52 1040 c0 -19 2 -27 5 -17 2 9 2 25 0 35 -3 9 -5 1 -5 -18z"/>
<path d="M72 1030 c0 -19 2 -27 5 -17 2 9 2 25 0 35 -3 9 -5 1 -5 -18z"/>
<path d="M90 1024 c0 -13 9 -28 20 -34 18 -10 20 -8 20 18 0 21 -6 31 -20 35
-16 4 -20 0 -20 -19z"/>
<path d="M142 1000 c0 -19 2 -27 5 -17 2 9 2 25 0 35 -3 9 -5 1 -5 -18z"/>
<path d="M160 984 c0 -16 9 -28 31 -39 42 -22 30 -30 -15 -11 l-36 15 0 -33
c0 -32 3 -35 58 -54 81 -29 184 -62 194 -62 4 0 8 18 8 40 0 39 -1 40 -77 84
-43 25 -84 46 -90 46 -7 0 -13 5 -13 11 0 5 -4 7 -10 4 -5 -3 -10 -2 -10 3 0
5 -9 12 -20 15 -16 4 -20 0 -20 -19z"/>
<path d="M10 951 c0 -16 6 -31 15 -35 12 -4 15 3 15 29 0 24 -5 35 -15 35 -10
0 -15 -10 -15 -29z"/>
<path d="M53 940 c0 -25 2 -35 4 -22 2 12 2 32 0 45 -2 12 -4 2 -4 -23z"/>
<path d="M71 938 c-1 -32 3 -37 29 -47 29 -10 30 -9 30 23 0 35 -27 58 -41 35
-5 -8 -9 -6 -12 7 -2 10 -5 3 -6 -18z"/>
<path d="M25 850 c3 -5 8 -10 11 -10 2 0 4 5 4 10 0 6 -5 10 -11 10 -5 0 -7
-4 -4 -10z"/>
<path d="M51 844 c0 -11 3 -14 6 -6 3 7 2 16 -1 19 -3 4 -6 -2 -5 -13z"/>
<path d="M70 836 c0 -6 14 -20 30 -29 l30 -18 0 25 c0 14 -6 26 -12 27 -7 0
-21 2 -30 4 -10 2 -18 -2 -18 -9z"/>
<path d="M10 810 c0 -17 4 -30 9 -30 5 0 17 -7 25 -16 15 -14 16 -12 16 21 0
22 -4 34 -10 30 -6 -3 -10 -2 -10 3 0 6 -7 12 -15 16 -11 4 -15 -2 -15 -24z"/>
<path d="M140 811 c0 -29 15 -40 83 -61 20 -6 37 -18 37 -26 0 -7 13 -20 30
-29 37 -19 40 -19 40 6 0 20 7 21 58 2 8 -4 12 7 12 35 l0 39 -60 12 c-34 7
-92 20 -130 30 l-70 19 0 -27z"/>
<path d="M70 780 c0 -34 3 -37 159 -132 87 -54 162 -98 165 -98 4 0 6 16 4 35
-3 34 -8 39 -130 110 -104 60 -128 70 -131 57 -3 -12 -5 -11 -6 5 -1 13 -10
24 -23 29 -13 4 -26 12 -30 18 -4 6 -8 -5 -8 -24z"/>
<path d="M50 639 c0 -5 -4 -8 -9 -5 -13 8 -33 -20 -29 -40 2 -9 13 -20 26 -25
21 -8 22 -6 22 36 0 25 -2 45 -5 45 -3 0 -5 -5 -5 -11z"/>
<path d="M70 594 c0 -42 2 -46 21 -41 23 6 89 -20 103 -41 15 -25 109 -62 159
-62 l47 0 0 40 0 40 -74 0 c-70 0 -76 2 -98 29 -21 27 -88 69 -88 56 0 -4 -10
1 -22 9 -38 27 -48 20 -48 -30z"/>
<path d="M10 526 l0 -33 188 -82 c103 -44 190 -81 195 -81 4 0 7 15 7 34 l0
34 -157 67 c-86 37 -162 68 -167 69 -6 1 -21 7 -33 14 -31 17 -33 16 -33 -22z"/>
<path d="M33 427 c-13 -5 -23 -18 -23 -29 0 -19 27 -34 88 -48 31 -8 32 -7 32
26 0 46 -50 73 -97 51z"/>
<path d="M210 337 c0 -38 4 -45 26 -56 15 -6 34 -9 44 -6 12 4 25 -3 36 -17
16 -19 63 -48 79 -48 3 0 5 11 5 25 0 40 -40 85 -97 110 -94 42 -93 42 -93 -8z"/>
<path d="M10 327 c0 -47 58 -91 200 -151 117 -49 139 -56 163 -47 21 8 27 17
27 39 0 23 -6 30 -35 41 -19 7 -40 9 -46 5 -13 -8 -211 74 -222 93 -9 14 -60
43 -77 43 -5 0 -10 -10 -10 -23z"/>
</g>
</svg>
